<svg class="main-svg" xmlns="http://www.w3.org/2000/svg" xmlns:xlink="http://www.w3.org/1999/xlink" width="800" height="600" style="" viewBox="0 0 800 600"><rect x="0" y="0" width="800" height="600" style="fill: rgb(255, 255, 255); fill-opacity: 1;"/><defs id="defs-6fef37"><g class="clips"><clipPath id="clip6fef37xyplot" class="plotclip"><rect width="758" height="474"/></clipPath><clipPath class="axesclip" id="clip6fef37x"><rect x="41" y="0" width="758" height="600"/></clipPath><clipPath class="axesclip" id="clip6fef37y"><rect x="0" y="50" width="800" height="474"/></clipPath><clipPath class="axesclip" id="clip6fef37xy"><rect x="41" y="50" width="758" height="474"/></clipPath></g><g class="gradients"/><g class="patterns"/></defs><g class="bglayer"><rect class="bg" x="41" y="50" width="758" height="474" style="fill: rgb(229, 236, 246); fill-opacity: 1; stroke-width: 0px;"/></g><g class="layer-below"><g class="imagelayer"/><g class="shapelayer"/></g><g class="cartesianlayer"><g class="subplot xy"><g class="layer-subplot"><g class="shapelayer"/><g class="imagelayer"/></g><g class="minor-gridlayer"><g class="x"/><g class="y"/></g><g class="gridlayer"><g class="x"><path class="xgrid crisp" transform="translate(61.3,0)" d="M0,50v474" style="stroke: rgb(255, 255, 255); stroke-opacity: 1; stroke-width: 1px;"/><path class="xgrid crisp" transform="translate(81.61,0)" d="M0,50v474" style="stroke: rgb(255, 255, 255); stroke-opacity: 1; stroke-width: 1px;"/><path class="xgrid crisp" transform="translate(101.91,0)" d="M0,50v474" style="stroke: rgb(255, 255, 255); stroke-opacity: 1; stroke-width: 1px;"/><path class="xgrid crisp" transform="translate(122.21,0)" d="M0,50v474" style="stroke: rgb(255, 255, 255); stroke-opacity: 1; stroke-width: 1px;"/><path class="xgrid crisp" transform="translate(142.51999999999998,0)" d="M0,50v474" style="stroke: rgb(255, 255, 255); stroke-opacity: 1; stroke-width: 1px;"/><path class="xgrid crisp" transform="translate(162.82,0)" d="M0,50v474" style="stroke: rgb(255, 255, 255); stroke-opacity: 1; stroke-width: 1px;"/><path class="xgrid crisp" transform="translate(183.13,0)" d="M0,50v474" style="stroke: rgb(255, 255, 255); stroke-opacity: 1; stroke-width: 1px;"/><path class="xgrid crisp" transform="translate(203.43,0)" d="M0,50v474" style="stroke: rgb(255, 255, 255); stroke-opacity: 1; stroke-width: 1px;"/><path class="xgrid crisp" transform="translate(223.73,0)" d="M0,50v474" style="stroke: rgb(255, 255, 255); stroke-opacity: 1; stroke-width: 1px;"/><path class="xgrid crisp" transform="translate(244.04,0)" d="M0,50v474" style="stroke: rgb(255, 255, 255); stroke-opacity: 1; stroke-width: 1px;"/><path class="xgrid crisp" transform="translate(264.34000000000003,0)" d="M0,50v474" style="stroke: rgb(255, 255, 255); stroke-opacity: 1; stroke-width: 1px;"/><path class="xgrid crisp" transform="translate(284.64,0)" d="M0,50v474" style="stroke: rgb(255, 255, 255); stroke-opacity: 1; stroke-width: 1px;"/><path class="xgrid crisp" transform="translate(304.95,0)" d="M0,50v474" style="stroke: rgb(255, 255, 255); stroke-opacity: 1; stroke-width: 1px;"/><path class="xgrid crisp" transform="translate(325.25,0)" d="M0,50v474" style="stroke: rgb(255, 255, 255); stroke-opacity: 1; stroke-width: 1px;"/><path class="xgrid crisp" transform="translate(345.55,0)" d="M0,50v474" style="stroke: rgb(255, 255, 255); stroke-opacity: 1; stroke-width: 1px;"/><path class="xgrid crisp" transform="translate(365.86,0)" d="M0,50v474" style="stroke: rgb(255, 255, 255); stroke-opacity: 1; stroke-width: 1px;"/><path class="xgrid crisp" transform="translate(386.16,0)" d="M0,50v474" style="stroke: rgb(255, 255, 255); stroke-opacity: 1; stroke-width: 1px;"/><path class="xgrid crisp" transform="translate(406.46,0)" d="M0,50v474" style="stroke: rgb(255, 255, 255); stroke-opacity: 1; stroke-width: 1px;"/><path class="xgrid crisp" transform="translate(426.77,0)" d="M0,50v474" style="stroke: rgb(255, 255, 255); stroke-opacity: 1; stroke-width: 1px;"/><path class="xgrid crisp" transform="translate(447.07,0)" d="M0,50v474" style="stroke: rgb(255, 255, 255); stroke-opacity: 1; stroke-width: 1px;"/><path class="xgrid crisp" transform="translate(467.38,0)" d="M0,50v474" style="stroke: rgb(255, 255, 255); stroke-opacity: 1; stroke-width: 1px;"/><path class="xgrid crisp" transform="translate(487.68,0)" d="M0,50v474" style="stroke: rgb(255, 255, 255); stroke-opacity: 1; stroke-width: 1px;"/><path class="xgrid crisp" transform="translate(507.98,0)" d="M0,50v474" style="stroke: rgb(255, 255, 255); stroke-opacity: 1; stroke-width: 1px;"/><path class="xgrid crisp" transform="translate(528.29,0)" d="M0,50v474" style="stroke: rgb(255, 255, 255); stroke-opacity: 1; stroke-width: 1px;"/><path class="xgrid crisp" transform="translate(548.5899999999999,0)" d="M0,50v474" style="stroke: rgb(255, 255, 255); stroke-opacity: 1; stroke-width: 1px;"/><path class="xgrid crisp" transform="translate(568.89,0)" d="M0,50v474" style="stroke: rgb(255, 255, 255); stroke-opacity: 1; stroke-width: 1px;"/><path class="xgrid crisp" transform="translate(589.2,0)" d="M0,50v474" style="stroke: rgb(255, 255, 255); stroke-opacity: 1; stroke-width: 1px;"/><path class="xgrid crisp" transform="translate(609.5,0)" d="M0,50v474" style="stroke: rgb(255, 255, 255); stroke-opacity: 1; stroke-width: 1px;"/><path class="xgrid crisp" transform="translate(629.8,0)" d="M0,50v474" style="stroke: rgb(255, 255, 255); stroke-opacity: 1; stroke-width: 1px;"/><path class="xgrid crisp" transform="translate(650.11,0)" d="M0,50v474" style="stroke: rgb(255, 255, 255); stroke-opacity: 1; stroke-width: 1px;"/><path class="xgrid crisp" transform="translate(670.41,0)" d="M0,50v474" style="stroke: rgb(255, 255, 255); stroke-opacity: 1; stroke-width: 1px;"/><path class="xgrid crisp" transform="translate(690.71,0)" d="M0,50v474" style="stroke: rgb(255, 255, 255); stroke-opacity: 1; stroke-width: 1px;"/><path class="xgrid crisp" transform="translate(711.02,0)" d="M0,50v474" style="stroke: rgb(255, 255, 255); stroke-opacity: 1; stroke-width: 1px;"/><path class="xgrid crisp" transform="translate(731.32,0)" d="M0,50v474" style="stroke: rgb(255, 255, 255); stroke-opacity: 1; stroke-width: 1px;"/><path class="xgrid crisp" transform="translate(751.63,0)" d="M0,50v474" style="stroke: rgb(255, 255, 255); stroke-opacity: 1; stroke-width: 1px;"/><path class="xgrid crisp" transform="translate(771.93,0)" d="M0,50v474" style="stroke: rgb(255, 255, 255); stroke-opacity: 1; stroke-width: 1px;"/><path class="xgrid crisp" transform="translate(792.23,0)" d="M0,50v474" style="stroke: rgb(255, 255, 255); stroke-opacity: 1; stroke-width: 1px;"/></g><g class="y"><path class="ygrid crisp" transform="translate(0,407.04)" d="M41,0h758" style="stroke: rgb(255, 255, 255); stroke-opacity: 1; stroke-width: 1px;"/><path class="ygrid crisp" transform="translate(0,312.62)" d="M41,0h758" style="stroke: rgb(255, 255, 255); stroke-opacity: 1; stroke-width: 1px;"/><path class="ygrid crisp" transform="translate(0,218.21)" d="M41,0h758" style="stroke: rgb(255, 255, 255); stroke-opacity: 1; stroke-width: 1px;"/><path class="ygrid crisp" transform="translate(0,123.8)" d="M41,0h758" style="stroke: rgb(255, 255, 255); stroke-opacity: 1; stroke-width: 1px;"/></g></g><g class="zerolinelayer"><path class="yzl zl crisp" transform="translate(0,501.45)" d="M41,0h758" style="stroke: rgb(255, 0, 0); stroke-opacity: 1; stroke-width: 3px;"/></g><path class="xlines-below"/><path class="ylines-below"/><g class="overlines-below"/><g class="xaxislayer-below"/><g class="yaxislayer-below"/><g class="overaxes-below"/><g class="plot" transform="translate(41,50)" clip-path="url(#clip6fef37xyplot)"><g class="scatterlayer mlayer"><g class="trace scatter trace68b37b" style="stroke-miterlimit: 2; opacity: 1;"><g class="fills"/><g class="errorbars"/><g class="lines"><path class="js-line" style="vector-effect: non-scaling-stroke; fill: none; stroke: rgb(99, 110, 250); stroke-opacity: 1; stroke-width: 2px; opacity: 1;" d="M0,384.54L6.77,435.36L13.54,425.43L20.3,276.31L27.07,425.92L33.84,413.01L40.61,430.51L47.38,408.16L54.14,433.38L60.91,410.04L67.68,427.21L74.45,431.36L81.21,431.82L87.98,389.65L94.75,418.22L101.52,433.43L108.29,426.99L115.05,429.29L121.82,430.39L128.59,431.75L135.36,429.09L142.13,424.92L148.89,324.93L155.66,418.81L162.43,431.34L169.2,326.23L175.96,364.92L182.73,380.8L189.5,376.67L196.27,376.56L203.04,390.94L209.8,193.64L216.57,415.16L223.34,423.81L230.11,49.33L236.88,434.12L243.64,429.27L250.41,409.82L257.18,412.41L263.95,430.26L270.71,427.22L277.48,429.85L284.25,425.92L291.02,442.97L297.79,443.55L304.55,415.37L311.32,407.47L318.09,418.29L324.86,420.78L331.63,423.65L338.39,382.82L345.16,388.24L351.93,423.96L358.7,423.51L365.46,417.82L372.23,425.87L379,398.64L385.77,378.77L392.54,425.31L399.3,429.39L406.07,383.66L412.84,436.76L419.61,401.14L426.38,420.55L433.14,433.12L439.91,425.58L446.68,445.87L453.45,321.1L460.21,374.98L466.98,436.3L473.75,404.22L480.52,450.3L487.29,403.25L494.05,292.57L500.82,226.75L507.59,413.44L514.36,339.51L527.89,418.39L534.66,23.7L541.43,355.88L548.2,276.87L554.96,428.25L561.73,421.98L568.5,428.22L575.27,429.05L582.04,426.31L588.8,426.36L595.57,431.39L602.34,422.96L609.11,421.33L615.88,429.44L622.64,434.65L629.41,428.25L636.18,430.58L642.95,425.47L649.71,395.89L656.48,422.46L663.25,441.74L670.02,426.72L676.79,424.42L683.55,429.37L690.32,429.49L697.09,434.17L703.86,409.09L710.63,423.79L717.39,424.85L724.16,430.24L730.93,427.89L737.7,76.91L744.46,429.8L751.23,423.43L758,413.31"/></g><g class="points"/><g class="text"/></g><g class="trace scatter trace2d46d3" style="stroke-miterlimit: 2; opacity: 1;"><g class="fills"/><g class="errorbars"/><g class="lines"><path class="js-line" style="vector-effect: non-scaling-stroke; fill: none; stroke: rgb(239, 85, 59); stroke-opacity: 1; stroke-width: 2px; opacity: 1;" d="M0,432.57L758,432.57"/></g><g class="points"/><g class="text"/></g><g class="trace scatter traceffb52b" style="stroke-miterlimit: 2; opacity: 1;"><g class="fills"/><g class="errorbars"/><g class="lines"><path class="js-line" style="vector-effect: non-scaling-stroke; fill: none; stroke: rgb(0, 204, 150); stroke-opacity: 1; stroke-width: 2px; opacity: 1;" d="M0,413.69L758,413.69"/></g><g class="points"/><g class="text"/></g></g></g><g class="overplot"/><path class="xlines-above crisp" style="fill: none;" d="M0,0"/><path class="ylines-above crisp" style="fill: none;" d="M0,0"/><g class="overlines-above"/><g class="xaxislayer-above"><g class="xtick"><text text-anchor="start" x="0" y="537" style="font-family: TOBESTRIPPEDOpen SansTOBESTRIPPED, verdana, arial, sans-serif; font-size: 12px; fill: rgb(42, 63, 95); fill-opacity: 1; white-space: pre; opacity: 1;" transform="translate(41,0) rotate(90,0,531)">10a.sql</text></g><g class="xtick"><text text-anchor="start" x="0" y="537" style="font-family: TOBESTRIPPEDOpen SansTOBESTRIPPED, verdana, arial, sans-serif; font-size: 12px; fill: rgb(42, 63, 95); fill-opacity: 1; white-space: pre; opacity: 1;" transform="translate(61.3,0) rotate(90,0,531)">11a.sql</text></g><g class="xtick"><text text-anchor="start" x="0" y="537" style="font-family: TOBESTRIPPEDOpen SansTOBESTRIPPED, verdana, arial, sans-serif; font-size: 12px; fill: rgb(42, 63, 95); fill-opacity: 1; white-space: pre; opacity: 1;" transform="translate(81.61,0) rotate(90,0,531)">11d.sql</text></g><g class="xtick"><text text-anchor="start" x="0" y="537" style="font-family: TOBESTRIPPEDOpen SansTOBESTRIPPED, verdana, arial, sans-serif; font-size: 12px; fill: rgb(42, 63, 95); fill-opacity: 1; white-space: pre; opacity: 1;" transform="translate(101.91,0) rotate(90,0,531)">12c.sql</text></g><g class="xtick"><text text-anchor="start" x="0" y="537" style="font-family: TOBESTRIPPEDOpen SansTOBESTRIPPED, verdana, arial, sans-serif; font-size: 12px; fill: rgb(42, 63, 95); fill-opacity: 1; white-space: pre; opacity: 1;" transform="translate(122.21,0) rotate(90,0,531)">13c.sql</text></g><g class="xtick"><text text-anchor="start" x="0" y="537" style="font-family: TOBESTRIPPEDOpen SansTOBESTRIPPED, verdana, arial, sans-serif; font-size: 12px; fill: rgb(42, 63, 95); fill-opacity: 1; white-space: pre; opacity: 1;" transform="translate(142.51999999999998,0) rotate(90,0,531)">14b.sql</text></g><g class="xtick"><text text-anchor="start" x="0" y="537" style="font-family: TOBESTRIPPEDOpen SansTOBESTRIPPED, verdana, arial, sans-serif; font-size: 12px; fill: rgb(42, 63, 95); fill-opacity: 1; white-space: pre; opacity: 1;" transform="translate(162.82,0) rotate(90,0,531)">15b.sql</text></g><g class="xtick"><text text-anchor="start" x="0" y="537" style="font-family: TOBESTRIPPEDOpen SansTOBESTRIPPED, verdana, arial, sans-serif; font-size: 12px; fill: rgb(42, 63, 95); fill-opacity: 1; white-space: pre; opacity: 1;" transform="translate(183.13,0) rotate(90,0,531)">16a.sql</text></g><g class="xtick"><text text-anchor="start" x="0" y="537" style="font-family: TOBESTRIPPEDOpen SansTOBESTRIPPED, verdana, arial, sans-serif; font-size: 12px; fill: rgb(42, 63, 95); fill-opacity: 1; white-space: pre; opacity: 1;" transform="translate(203.43,0) rotate(90,0,531)">16d.sql</text></g><g class="xtick"><text text-anchor="start" x="0" y="537" style="font-family: TOBESTRIPPEDOpen SansTOBESTRIPPED, verdana, arial, sans-serif; font-size: 12px; fill: rgb(42, 63, 95); fill-opacity: 1; white-space: pre; opacity: 1;" transform="translate(223.73,0) rotate(90,0,531)">17c.sql</text></g><g class="xtick"><text text-anchor="start" x="0" y="537" style="font-family: TOBESTRIPPEDOpen SansTOBESTRIPPED, verdana, arial, sans-serif; font-size: 12px; fill: rgb(42, 63, 95); fill-opacity: 1; white-space: pre; opacity: 1;" transform="translate(244.04,0) rotate(90,0,531)">17f.sql</text></g><g class="xtick"><text text-anchor="start" x="0" y="537" style="font-family: TOBESTRIPPEDOpen SansTOBESTRIPPED, verdana, arial, sans-serif; font-size: 12px; fill: rgb(42, 63, 95); fill-opacity: 1; white-space: pre; opacity: 1;" transform="translate(264.34000000000003,0) rotate(90,0,531)">18c.sql</text></g><g class="xtick"><text text-anchor="start" x="0" y="537" style="font-family: TOBESTRIPPEDOpen SansTOBESTRIPPED, verdana, arial, sans-serif; font-size: 12px; fill: rgb(42, 63, 95); fill-opacity: 1; white-space: pre; opacity: 1;" transform="translate(284.64,0) rotate(90,0,531)">19c.sql</text></g><g class="xtick"><text text-anchor="start" x="0" y="537" style="font-family: TOBESTRIPPEDOpen SansTOBESTRIPPED, verdana, arial, sans-serif; font-size: 12px; fill: rgb(42, 63, 95); fill-opacity: 1; white-space: pre; opacity: 1;" transform="translate(304.95,0) rotate(90,0,531)">1b.sql</text></g><g class="xtick"><text text-anchor="start" x="0" y="537" style="font-family: TOBESTRIPPEDOpen SansTOBESTRIPPED, verdana, arial, sans-serif; font-size: 12px; fill: rgb(42, 63, 95); fill-opacity: 1; white-space: pre; opacity: 1;" transform="translate(325.25,0) rotate(90,0,531)">20a.sql</text></g><g class="xtick"><text text-anchor="start" x="0" y="537" style="font-family: TOBESTRIPPEDOpen SansTOBESTRIPPED, verdana, arial, sans-serif; font-size: 12px; fill: rgb(42, 63, 95); fill-opacity: 1; white-space: pre; opacity: 1;" transform="translate(345.55,0) rotate(90,0,531)">21a.sql</text></g><g class="xtick"><text text-anchor="start" x="0" y="537" style="font-family: TOBESTRIPPEDOpen SansTOBESTRIPPED, verdana, arial, sans-serif; font-size: 12px; fill: rgb(42, 63, 95); fill-opacity: 1; white-space: pre; opacity: 1;" transform="translate(365.86,0) rotate(90,0,531)">22a.sql</text></g><g class="xtick"><text text-anchor="start" x="0" y="537" style="font-family: TOBESTRIPPEDOpen SansTOBESTRIPPED, verdana, arial, sans-serif; font-size: 12px; fill: rgb(42, 63, 95); fill-opacity: 1; white-space: pre; opacity: 1;" transform="translate(386.16,0) rotate(90,0,531)">22d.sql</text></g><g class="xtick"><text text-anchor="start" x="0" y="537" style="font-family: TOBESTRIPPEDOpen SansTOBESTRIPPED, verdana, arial, sans-serif; font-size: 12px; fill: rgb(42, 63, 95); fill-opacity: 1; white-space: pre; opacity: 1;" transform="translate(406.46,0) rotate(90,0,531)">23c.sql</text></g><g class="xtick"><text text-anchor="start" x="0" y="537" style="font-family: TOBESTRIPPEDOpen SansTOBESTRIPPED, verdana, arial, sans-serif; font-size: 12px; fill: rgb(42, 63, 95); fill-opacity: 1; white-space: pre; opacity: 1;" transform="translate(426.77,0) rotate(90,0,531)">25a.sql</text></g><g class="xtick"><text text-anchor="start" x="0" y="537" style="font-family: TOBESTRIPPEDOpen SansTOBESTRIPPED, verdana, arial, sans-serif; font-size: 12px; fill: rgb(42, 63, 95); fill-opacity: 1; white-space: pre; opacity: 1;" transform="translate(447.07,0) rotate(90,0,531)">26a.sql</text></g><g class="xtick"><text text-anchor="start" x="0" y="537" style="font-family: TOBESTRIPPEDOpen SansTOBESTRIPPED, verdana, arial, sans-serif; font-size: 12px; fill: rgb(42, 63, 95); fill-opacity: 1; white-space: pre; opacity: 1;" transform="translate(467.38,0) rotate(90,0,531)">27a.sql</text></g><g class="xtick"><text text-anchor="start" x="0" y="537" style="font-family: TOBESTRIPPEDOpen SansTOBESTRIPPED, verdana, arial, sans-serif; font-size: 12px; fill: rgb(42, 63, 95); fill-opacity: 1; white-space: pre; opacity: 1;" transform="translate(487.68,0) rotate(90,0,531)">28a.sql</text></g><g class="xtick"><text text-anchor="start" x="0" y="537" style="font-family: TOBESTRIPPEDOpen SansTOBESTRIPPED, verdana, arial, sans-serif; font-size: 12px; fill: rgb(42, 63, 95); fill-opacity: 1; white-space: pre; opacity: 1;" transform="translate(507.98,0) rotate(90,0,531)">29a.sql</text></g><g class="xtick"><text text-anchor="start" x="0" y="537" style="font-family: TOBESTRIPPEDOpen SansTOBESTRIPPED, verdana, arial, sans-serif; font-size: 12px; fill: rgb(42, 63, 95); fill-opacity: 1; white-space: pre; opacity: 1;" transform="translate(528.29,0) rotate(90,0,531)">2a.sql</text></g><g class="xtick"><text text-anchor="start" x="0" y="537" style="font-family: TOBESTRIPPEDOpen SansTOBESTRIPPED, verdana, arial, sans-serif; font-size: 12px; fill: rgb(42, 63, 95); fill-opacity: 1; white-space: pre; opacity: 1;" transform="translate(548.5899999999999,0) rotate(90,0,531)">2d.sql</text></g><g class="xtick"><text text-anchor="start" x="0" y="537" style="font-family: TOBESTRIPPEDOpen SansTOBESTRIPPED, verdana, arial, sans-serif; font-size: 12px; fill: rgb(42, 63, 95); fill-opacity: 1; white-space: pre; opacity: 1;" transform="translate(568.89,0) rotate(90,0,531)">30c.sql</text></g><g class="xtick"><text text-anchor="start" x="0" y="537" style="font-family: TOBESTRIPPEDOpen SansTOBESTRIPPED, verdana, arial, sans-serif; font-size: 12px; fill: rgb(42, 63, 95); fill-opacity: 1; white-space: pre; opacity: 1;" transform="translate(589.2,0) rotate(90,0,531)">31c.sql</text></g><g class="xtick"><text text-anchor="start" x="0" y="537" style="font-family: TOBESTRIPPEDOpen SansTOBESTRIPPED, verdana, arial, sans-serif; font-size: 12px; fill: rgb(42, 63, 95); fill-opacity: 1; white-space: pre; opacity: 1;" transform="translate(609.5,0) rotate(90,0,531)">33a.sql</text></g><g class="xtick"><text text-anchor="start" x="0" y="537" style="font-family: TOBESTRIPPEDOpen SansTOBESTRIPPED, verdana, arial, sans-serif; font-size: 12px; fill: rgb(42, 63, 95); fill-opacity: 1; white-space: pre; opacity: 1;" transform="translate(629.8,0) rotate(90,0,531)">3a.sql</text></g><g class="xtick"><text text-anchor="start" x="0" y="537" style="font-family: TOBESTRIPPEDOpen SansTOBESTRIPPED, verdana, arial, sans-serif; font-size: 12px; fill: rgb(42, 63, 95); fill-opacity: 1; white-space: pre; opacity: 1;" transform="translate(650.11,0) rotate(90,0,531)">4a.sql</text></g><g class="xtick"><text text-anchor="start" x="0" y="537" style="font-family: TOBESTRIPPEDOpen SansTOBESTRIPPED, verdana, arial, sans-serif; font-size: 12px; fill: rgb(42, 63, 95); fill-opacity: 1; white-space: pre; opacity: 1;" transform="translate(670.41,0) rotate(90,0,531)">5a.sql</text></g><g class="xtick"><text text-anchor="start" x="0" y="537" style="font-family: TOBESTRIPPEDOpen SansTOBESTRIPPED, verdana, arial, sans-serif; font-size: 12px; fill: rgb(42, 63, 95); fill-opacity: 1; white-space: pre; opacity: 1;" transform="translate(690.71,0) rotate(90,0,531)">6a.sql</text></g><g class="xtick"><text text-anchor="start" x="0" y="537" style="font-family: TOBESTRIPPEDOpen SansTOBESTRIPPED, verdana, arial, sans-serif; font-size: 12px; fill: rgb(42, 63, 95); fill-opacity: 1; white-space: pre; opacity: 1;" transform="translate(711.02,0) rotate(90,0,531)">6d.sql</text></g><g class="xtick"><text text-anchor="start" x="0" y="537" style="font-family: TOBESTRIPPEDOpen SansTOBESTRIPPED, verdana, arial, sans-serif; font-size: 12px; fill: rgb(42, 63, 95); fill-opacity: 1; white-space: pre; opacity: 1;" transform="translate(731.32,0) rotate(90,0,531)">7a.sql</text></g><g class="xtick"><text text-anchor="start" x="0" y="537" style="font-family: TOBESTRIPPEDOpen SansTOBESTRIPPED, verdana, arial, sans-serif; font-size: 12px; fill: rgb(42, 63, 95); fill-opacity: 1; white-space: pre; opacity: 1;" transform="translate(751.63,0) rotate(90,0,531)">8a.sql</text></g><g class="xtick"><text text-anchor="start" x="0" y="537" style="font-family: TOBESTRIPPEDOpen SansTOBESTRIPPED, verdana, arial, sans-serif; font-size: 12px; fill: rgb(42, 63, 95); fill-opacity: 1; white-space: pre; opacity: 1;" transform="translate(771.93,0) rotate(90,0,531)">8d.sql</text></g><g class="xtick"><text text-anchor="start" x="0" y="537" style="font-family: TOBESTRIPPEDOpen SansTOBESTRIPPED, verdana, arial, sans-serif; font-size: 12px; fill: rgb(42, 63, 95); fill-opacity: 1; white-space: pre; opacity: 1;" transform="translate(792.23,0) rotate(90,0,531)">9c.sql</text></g></g><g class="yaxislayer-above"><g class="ytick"><text text-anchor="end" x="40" y="4.199999999999999" style="font-family: TOBESTRIPPEDOpen SansTOBESTRIPPED, verdana, arial, sans-serif; font-size: 12px; fill: rgb(42, 63, 95); fill-opacity: 1; white-space: pre; opacity: 1;" transform="translate(0,501.45)">0</text></g><g class="ytick"><text text-anchor="end" x="40" y="4.199999999999999" style="font-family: TOBESTRIPPEDOpen SansTOBESTRIPPED, verdana, arial, sans-serif; font-size: 12px; fill: rgb(42, 63, 95); fill-opacity: 1; white-space: pre; opacity: 1;" transform="translate(0,407.04)">5</text></g><g class="ytick"><text text-anchor="end" x="40" y="4.199999999999999" style="font-family: TOBESTRIPPEDOpen SansTOBESTRIPPED, verdana, arial, sans-serif; font-size: 12px; fill: rgb(42, 63, 95); fill-opacity: 1; white-space: pre; opacity: 1;" transform="translate(0,312.62)">10</text></g><g class="ytick"><text text-anchor="end" x="40" y="4.199999999999999" style="font-family: TOBESTRIPPEDOpen SansTOBESTRIPPED, verdana, arial, sans-serif; font-size: 12px; fill: rgb(42, 63, 95); fill-opacity: 1; white-space: pre; opacity: 1;" transform="translate(0,218.21)">15</text></g><g class="ytick"><text text-anchor="end" x="40" y="4.199999999999999" style="font-family: TOBESTRIPPEDOpen SansTOBESTRIPPED, verdana, arial, sans-serif; font-size: 12px; fill: rgb(42, 63, 95); fill-opacity: 1; white-space: pre; opacity: 1;" transform="translate(0,123.8)">20</text></g></g><g class="overaxes-above"/></g></g><g class="polarlayer"/><g class="smithlayer"/><g class="ternarylayer"/><g class="geolayer"/><g class="funnelarealayer"/><g class="pielayer"/><g class="iciclelayer"/><g class="treemaplayer"/><g class="sunburstlayer"/><g class="glimages"/><defs id="topdefs-6fef37"><g class="clips"/><clipPath id="legend6fef37"><rect width="255" height="29" x="0" y="0"/></clipPath></defs><g class="layer-above"><g class="imagelayer"/><g class="shapelayer"/></g><g class="infolayer"><g class="legend" pointer-events="all" transform="translate(292.5,571)"><rect class="bg" shape-rendering="crispEdges" style="stroke: rgb(68, 68, 68); stroke-opacity: 1; fill: rgb(255, 255, 255); fill-opacity: 1; stroke-width: 0px;" width="255" height="29" x="0" y="0"/><g class="scrollbox" transform="" clip-path="url(#legend6fef37)"><g class="groups"><g class="traces" style="opacity: 1;" transform="translate(0,14.5)"><text class="legendtext" text-anchor="start" style="font-family: TOBESTRIPPEDOpen SansTOBESTRIPPED, verdana, arial, sans-serif; font-size: 12px; fill: rgb(42, 63, 95); fill-opacity: 1; white-space: pre;" x="40" y="4.680000000000001">trace 0</text><g class="layers" style="opacity: 1;"><g class="legendfill"/><g class="legendlines"><path class="js-line" d="M5,0h30" style="fill: none; stroke: rgb(99, 110, 250); stroke-opacity: 1; stroke-width: 2px;"/></g><g class="legendsymbols"><g class="legendpoints"/></g></g><rect class="legendtoggle" style="fill: rgb(0, 0, 0); fill-opacity: 0;" x="0" y="-9.5" width="82.5" height="19"/></g><g class="traces" style="opacity: 1;" transform="translate(85,14.5)"><text class="legendtext" text-anchor="start" style="font-family: TOBESTRIPPEDOpen SansTOBESTRIPPED, verdana, arial, sans-serif; font-size: 12px; fill: rgb(42, 63, 95); fill-opacity: 1; white-space: pre;" x="40" y="4.680000000000001">trace 1</text><g class="layers" style="opacity: 1;"><g class="legendfill"/><g class="legendlines"><path class="js-line" d="M5,0h30" style="fill: none; stroke: rgb(239, 85, 59); stroke-opacity: 1; stroke-width: 2px;"/></g><g class="legendsymbols"><g class="legendpoints"/></g></g><rect class="legendtoggle" style="fill: rgb(0, 0, 0); fill-opacity: 0;" x="0" y="-9.5" width="82.5" height="19"/></g><g class="traces" style="opacity: 1;" transform="translate(170,14.5)"><text class="legendtext" text-anchor="start" style="font-family: TOBESTRIPPEDOpen SansTOBESTRIPPED, verdana, arial, sans-serif; font-size: 12px; fill: rgb(42, 63, 95); fill-opacity: 1; white-space: pre;" x="40" y="4.680000000000001">trace 2</text><g class="layers" style="opacity: 1;"><g class="legendfill"/><g class="legendlines"><path class="js-line" d="M5,0h30" style="fill: none; stroke: rgb(0, 204, 150); stroke-opacity: 1; stroke-width: 2px;"/></g><g class="legendsymbols"><g class="legendpoints"/></g></g><rect class="legendtoggle" style="fill: rgb(0, 0, 0); fill-opacity: 0;" x="0" y="-9.5" width="82.5" height="19"/></g></g></g><rect class="scrollbar" rx="20" ry="3" width="0" height="0" style="fill: rgb(128, 139, 164); fill-opacity: 1;" x="0" y="0"/></g><g class="g-gtitle"><text class="gtitle" style="font-family: TOBESTRIPPEDOpen SansTOBESTRIPPED, verdana, arial, sans-serif; font-size: 17px; fill: rgb(42, 63, 95); opacity: 1; font-weight: normal; white-space: pre;" x="40" y="25" text-anchor="start" dy="0em">Во сколько раз вемя выполнения запроса с AQO превосходит без AQO</text></g><g class="g-xtitle" transform="translate(0,-3.216671752929642)"><text class="xtitle" style="font-family: TOBESTRIPPEDOpen SansTOBESTRIPPED, verdana, arial, sans-serif; font-size: 14px; fill: rgb(42, 63, 95); opacity: 1; font-weight: normal; white-space: pre;" x="420" y="597.2166717529296" text-anchor="middle">Имя файлов запросов</text></g><g class="g-ytitle" transform="translate(15.5498046875,0)"><text class="ytitle" transform="rotate(-90,0.45000000000000284,287)" style="font-family: TOBESTRIPPEDOpen SansTOBESTRIPPED, verdana, arial, sans-serif; font-size: 14px; fill: rgb(42, 63, 95); opacity: 1; font-weight: normal; white-space: pre;" x="0.45000000000000284" y="287" text-anchor="middle">Значение</text></g></g></svg>