<svg class="main-svg" xmlns="http://www.w3.org/2000/svg" xmlns:xlink="http://www.w3.org/1999/xlink" width="800" height="600" style="" viewBox="0 0 800 600"><rect x="0" y="0" width="800" height="600" style="fill: rgb(255, 255, 255); fill-opacity: 1;"/><defs id="defs-d01089"><g class="clips"><clipPath id="clipd01089xyplot" class="plotclip"><rect width="755" height="474"/></clipPath><clipPath class="axesclip" id="clipd01089x"><rect x="44" y="0" width="755" height="600"/></clipPath><clipPath class="axesclip" id="clipd01089y"><rect x="0" y="50" width="800" height="474"/></clipPath><clipPath class="axesclip" id="clipd01089xy"><rect x="44" y="50" width="755" height="474"/></clipPath></g><g class="gradients"/><g class="patterns"/></defs><g class="bglayer"><rect class="bg" x="44" y="50" width="755" height="474" style="fill: rgb(229, 236, 246); fill-opacity: 1; stroke-width: 0px;"/></g><g class="layer-below"><g class="imagelayer"/><g class="shapelayer"/></g><g class="cartesianlayer"><g class="subplot xy"><g class="layer-subplot"><g class="shapelayer"/><g class="imagelayer"/></g><g class="minor-gridlayer"><g class="x"/><g class="y"/></g><g class="gridlayer"><g class="x"><path class="xgrid crisp" transform="translate(64.22,0)" d="M0,50v474" style="stroke: rgb(255, 255, 255); stroke-opacity: 1; stroke-width: 1px;"/><path class="xgrid crisp" transform="translate(84.45,0)" d="M0,50v474" style="stroke: rgb(255, 255, 255); stroke-opacity: 1; stroke-width: 1px;"/><path class="xgrid crisp" transform="translate(104.67,0)" d="M0,50v474" style="stroke: rgb(255, 255, 255); stroke-opacity: 1; stroke-width: 1px;"/><path class="xgrid crisp" transform="translate(124.89,0)" d="M0,50v474" style="stroke: rgb(255, 255, 255); stroke-opacity: 1; stroke-width: 1px;"/><path class="xgrid crisp" transform="translate(145.12,0)" d="M0,50v474" style="stroke: rgb(255, 255, 255); stroke-opacity: 1; stroke-width: 1px;"/><path class="xgrid crisp" transform="translate(165.34,0)" d="M0,50v474" style="stroke: rgb(255, 255, 255); stroke-opacity: 1; stroke-width: 1px;"/><path class="xgrid crisp" transform="translate(185.56,0)" d="M0,50v474" style="stroke: rgb(255, 255, 255); stroke-opacity: 1; stroke-width: 1px;"/><path class="xgrid crisp" transform="translate(205.79,0)" d="M0,50v474" style="stroke: rgb(255, 255, 255); stroke-opacity: 1; stroke-width: 1px;"/><path class="xgrid crisp" transform="translate(226.01,0)" d="M0,50v474" style="stroke: rgb(255, 255, 255); stroke-opacity: 1; stroke-width: 1px;"/><path class="xgrid crisp" transform="translate(246.23,0)" d="M0,50v474" style="stroke: rgb(255, 255, 255); stroke-opacity: 1; stroke-width: 1px;"/><path class="xgrid crisp" transform="translate(266.46000000000004,0)" d="M0,50v474" style="stroke: rgb(255, 255, 255); stroke-opacity: 1; stroke-width: 1px;"/><path class="xgrid crisp" transform="translate(286.68,0)" d="M0,50v474" style="stroke: rgb(255, 255, 255); stroke-opacity: 1; stroke-width: 1px;"/><path class="xgrid crisp" transform="translate(306.9,0)" d="M0,50v474" style="stroke: rgb(255, 255, 255); stroke-opacity: 1; stroke-width: 1px;"/><path class="xgrid crisp" transform="translate(327.13,0)" d="M0,50v474" style="stroke: rgb(255, 255, 255); stroke-opacity: 1; stroke-width: 1px;"/><path class="xgrid crisp" transform="translate(347.35,0)" d="M0,50v474" style="stroke: rgb(255, 255, 255); stroke-opacity: 1; stroke-width: 1px;"/><path class="xgrid crisp" transform="translate(367.57,0)" d="M0,50v474" style="stroke: rgb(255, 255, 255); stroke-opacity: 1; stroke-width: 1px;"/><path class="xgrid crisp" transform="translate(387.79,0)" d="M0,50v474" style="stroke: rgb(255, 255, 255); stroke-opacity: 1; stroke-width: 1px;"/><path class="xgrid crisp" transform="translate(408.02,0)" d="M0,50v474" style="stroke: rgb(255, 255, 255); stroke-opacity: 1; stroke-width: 1px;"/><path class="xgrid crisp" transform="translate(428.24,0)" d="M0,50v474" style="stroke: rgb(255, 255, 255); stroke-opacity: 1; stroke-width: 1px;"/><path class="xgrid crisp" transform="translate(448.46,0)" d="M0,50v474" style="stroke: rgb(255, 255, 255); stroke-opacity: 1; stroke-width: 1px;"/><path class="xgrid crisp" transform="translate(468.69,0)" d="M0,50v474" style="stroke: rgb(255, 255, 255); stroke-opacity: 1; stroke-width: 1px;"/><path class="xgrid crisp" transform="translate(488.91,0)" d="M0,50v474" style="stroke: rgb(255, 255, 255); stroke-opacity: 1; stroke-width: 1px;"/><path class="xgrid crisp" transform="translate(509.13,0)" d="M0,50v474" style="stroke: rgb(255, 255, 255); stroke-opacity: 1; stroke-width: 1px;"/><path class="xgrid crisp" transform="translate(529.36,0)" d="M0,50v474" style="stroke: rgb(255, 255, 255); stroke-opacity: 1; stroke-width: 1px;"/><path class="xgrid crisp" transform="translate(549.5799999999999,0)" d="M0,50v474" style="stroke: rgb(255, 255, 255); stroke-opacity: 1; stroke-width: 1px;"/><path class="xgrid crisp" transform="translate(569.8,0)" d="M0,50v474" style="stroke: rgb(255, 255, 255); stroke-opacity: 1; stroke-width: 1px;"/><path class="xgrid crisp" transform="translate(590.03,0)" d="M0,50v474" style="stroke: rgb(255, 255, 255); stroke-opacity: 1; stroke-width: 1px;"/><path class="xgrid crisp" transform="translate(610.25,0)" d="M0,50v474" style="stroke: rgb(255, 255, 255); stroke-opacity: 1; stroke-width: 1px;"/><path class="xgrid crisp" transform="translate(630.47,0)" d="M0,50v474" style="stroke: rgb(255, 255, 255); stroke-opacity: 1; stroke-width: 1px;"/><path class="xgrid crisp" transform="translate(650.7,0)" d="M0,50v474" style="stroke: rgb(255, 255, 255); stroke-opacity: 1; stroke-width: 1px;"/><path class="xgrid crisp" transform="translate(670.92,0)" d="M0,50v474" style="stroke: rgb(255, 255, 255); stroke-opacity: 1; stroke-width: 1px;"/><path class="xgrid crisp" transform="translate(691.14,0)" d="M0,50v474" style="stroke: rgb(255, 255, 255); stroke-opacity: 1; stroke-width: 1px;"/><path class="xgrid crisp" transform="translate(711.37,0)" d="M0,50v474" style="stroke: rgb(255, 255, 255); stroke-opacity: 1; stroke-width: 1px;"/><path class="xgrid crisp" transform="translate(731.59,0)" d="M0,50v474" style="stroke: rgb(255, 255, 255); stroke-opacity: 1; stroke-width: 1px;"/><path class="xgrid crisp" transform="translate(751.81,0)" d="M0,50v474" style="stroke: rgb(255, 255, 255); stroke-opacity: 1; stroke-width: 1px;"/><path class="xgrid crisp" transform="translate(772.04,0)" d="M0,50v474" style="stroke: rgb(255, 255, 255); stroke-opacity: 1; stroke-width: 1px;"/><path class="xgrid crisp" transform="translate(792.26,0)" d="M0,50v474" style="stroke: rgb(255, 255, 255); stroke-opacity: 1; stroke-width: 1px;"/></g><g class="y"><path class="ygrid crisp" transform="translate(0,403.24)" d="M44,0h755" style="stroke: rgb(255, 255, 255); stroke-opacity: 1; stroke-width: 1px;"/><path class="ygrid crisp" transform="translate(0,293.39)" d="M44,0h755" style="stroke: rgb(255, 255, 255); stroke-opacity: 1; stroke-width: 1px;"/><path class="ygrid crisp" transform="translate(0,183.55)" d="M44,0h755" style="stroke: rgb(255, 255, 255); stroke-opacity: 1; stroke-width: 1px;"/><path class="ygrid crisp" transform="translate(0,73.7)" d="M44,0h755" style="stroke: rgb(255, 255, 255); stroke-opacity: 1; stroke-width: 1px;"/></g></g><g class="zerolinelayer"><path class="yzl zl crisp" transform="translate(0,513.0899999999999)" d="M44,0h755" style="stroke: rgb(255, 0, 0); stroke-opacity: 1; stroke-width: 3px;"/></g><path class="xlines-below"/><path class="ylines-below"/><g class="overlines-below"/><g class="xaxislayer-below"/><g class="yaxislayer-below"/><g class="overaxes-below"/><g class="plot" transform="translate(44,50)" clip-path="url(#clipd01089xyplot)"><g class="scatterlayer mlayer"><g class="trace scatter trace98bb07" style="stroke-miterlimit: 2; opacity: 1;"><g class="fills"/><g class="errorbars"/><g class="lines"><path class="js-line" style="vector-effect: non-scaling-stroke; fill: none; stroke: rgb(99, 110, 250); stroke-opacity: 1; stroke-width: 2px; opacity: 1;" d="M0,262.17L6.74,334.87L13.48,332.49L20.22,264.62L26.96,323.78L33.71,335.05L40.45,316.72L47.19,329.68L53.93,352L60.67,341.71L67.41,341.46L74.15,346.8L80.89,369.45L87.63,349.3L94.38,303.69L101.12,359.9L107.86,349.25L114.6,334.2L121.34,343L128.08,329.29L134.82,369.17L141.56,309.11L148.3,338.95L155.04,282.62L161.79,305.56L168.53,319.61L175.27,304.15L182.01,343.51L188.75,357.83L195.49,337.6L202.23,330.96L208.97,332.22L215.71,303.65L222.46,368.13L229.2,358.51L235.94,388.18L242.68,372.28L249.42,357.78L256.16,313.05L262.9,347.92L269.64,322.18L276.38,332.98L283.13,337.57L289.87,383.01L296.61,343.41L303.35,326.13L310.09,345.98L316.83,358.71L323.57,359.75L330.31,400.7L337.05,356.33L343.79,320.43L350.54,356.53L357.28,335.06L364.02,336.55L370.76,441.57L377.5,443.17L384.24,354.8L390.98,348.15L397.72,328.35L404.46,443.84L411.21,441.12L417.95,442.45L424.69,442.34L431.43,439.83L438.17,439.4L444.91,443.49L451.65,448.73L458.39,446.78L465.13,450.3L471.88,450.07L478.62,448.74L485.36,305.53L492.1,287.14L498.84,264.46L505.58,396.66L512.32,443.08L525.8,440.58L532.54,358.53L539.29,369.9L546.03,347.71L552.77,319.25L559.51,320.64L566.25,442.14L572.99,442.87L579.73,442.4L586.47,281.21L593.21,298.37L599.96,328.86L606.7,312.05L613.44,337.32L620.18,343.49L626.92,293.69L633.66,372.59L640.4,326.92L653.88,262.48L660.63,311.93L667.37,335.44L674.11,313.73L680.85,290.36L687.59,333.24L694.33,310.77L701.07,358.28L707.81,309.4L714.55,345.44L721.29,314.73L728.04,339.7L734.78,350.99L741.52,343.24L748.26,359.41L755,344.05"/></g><g class="points"/><g class="text"/></g><g class="trace scatter traceabcd0d" style="stroke-miterlimit: 2; opacity: 1;"><g class="fills"/><g class="errorbars"/><g class="lines"><path class="js-line" style="vector-effect: non-scaling-stroke; fill: none; stroke: rgb(239, 85, 59); stroke-opacity: 1; stroke-width: 2px; opacity: 1;" d="M0,243.39L755,243.39"/></g><g class="points"/><g class="text"/></g><g class="trace scatter traceea8ee2" style="stroke-miterlimit: 2; opacity: 1;"><g class="fills"/><g class="errorbars"/><g class="lines"><path class="js-line" style="vector-effect: non-scaling-stroke; fill: none; stroke: rgb(0, 204, 150); stroke-opacity: 1; stroke-width: 2px; opacity: 1;" d="M0,23.7L755,23.7"/></g><g class="points"/><g class="text"/></g></g></g><g class="overplot"/><path class="xlines-above crisp" style="fill: none;" d="M0,0"/><path class="ylines-above crisp" style="fill: none;" d="M0,0"/><g class="overlines-above"/><g class="xaxislayer-above"><g class="xtick"><text text-anchor="start" x="0" y="537" style="font-family: TOBESTRIPPEDOpen SansTOBESTRIPPED, verdana, arial, sans-serif; font-size: 12px; fill: rgb(42, 63, 95); fill-opacity: 1; white-space: pre; opacity: 1;" transform="translate(44,0) rotate(90,0,531)">10a.sql</text></g><g class="xtick"><text text-anchor="start" x="0" y="537" style="font-family: TOBESTRIPPEDOpen SansTOBESTRIPPED, verdana, arial, sans-serif; font-size: 12px; fill: rgb(42, 63, 95); fill-opacity: 1; white-space: pre; opacity: 1;" transform="translate(64.22,0) rotate(90,0,531)">11a.sql</text></g><g class="xtick"><text text-anchor="start" x="0" y="537" style="font-family: TOBESTRIPPEDOpen SansTOBESTRIPPED, verdana, arial, sans-serif; font-size: 12px; fill: rgb(42, 63, 95); fill-opacity: 1; white-space: pre; opacity: 1;" transform="translate(84.45,0) rotate(90,0,531)">11d.sql</text></g><g class="xtick"><text text-anchor="start" x="0" y="537" style="font-family: TOBESTRIPPEDOpen SansTOBESTRIPPED, verdana, arial, sans-serif; font-size: 12px; fill: rgb(42, 63, 95); fill-opacity: 1; white-space: pre; opacity: 1;" transform="translate(104.67,0) rotate(90,0,531)">12c.sql</text></g><g class="xtick"><text text-anchor="start" x="0" y="537" style="font-family: TOBESTRIPPEDOpen SansTOBESTRIPPED, verdana, arial, sans-serif; font-size: 12px; fill: rgb(42, 63, 95); fill-opacity: 1; white-space: pre; opacity: 1;" transform="translate(124.89,0) rotate(90,0,531)">13c.sql</text></g><g class="xtick"><text text-anchor="start" x="0" y="537" style="font-family: TOBESTRIPPEDOpen SansTOBESTRIPPED, verdana, arial, sans-serif; font-size: 12px; fill: rgb(42, 63, 95); fill-opacity: 1; white-space: pre; opacity: 1;" transform="translate(145.12,0) rotate(90,0,531)">14b.sql</text></g><g class="xtick"><text text-anchor="start" x="0" y="537" style="font-family: TOBESTRIPPEDOpen SansTOBESTRIPPED, verdana, arial, sans-serif; font-size: 12px; fill: rgb(42, 63, 95); fill-opacity: 1; white-space: pre; opacity: 1;" transform="translate(165.34,0) rotate(90,0,531)">15b.sql</text></g><g class="xtick"><text text-anchor="start" x="0" y="537" style="font-family: TOBESTRIPPEDOpen SansTOBESTRIPPED, verdana, arial, sans-serif; font-size: 12px; fill: rgb(42, 63, 95); fill-opacity: 1; white-space: pre; opacity: 1;" transform="translate(185.56,0) rotate(90,0,531)">16a.sql</text></g><g class="xtick"><text text-anchor="start" x="0" y="537" style="font-family: TOBESTRIPPEDOpen SansTOBESTRIPPED, verdana, arial, sans-serif; font-size: 12px; fill: rgb(42, 63, 95); fill-opacity: 1; white-space: pre; opacity: 1;" transform="translate(205.79,0) rotate(90,0,531)">16d.sql</text></g><g class="xtick"><text text-anchor="start" x="0" y="537" style="font-family: TOBESTRIPPEDOpen SansTOBESTRIPPED, verdana, arial, sans-serif; font-size: 12px; fill: rgb(42, 63, 95); fill-opacity: 1; white-space: pre; opacity: 1;" transform="translate(226.01,0) rotate(90,0,531)">17c.sql</text></g><g class="xtick"><text text-anchor="start" x="0" y="537" style="font-family: TOBESTRIPPEDOpen SansTOBESTRIPPED, verdana, arial, sans-serif; font-size: 12px; fill: rgb(42, 63, 95); fill-opacity: 1; white-space: pre; opacity: 1;" transform="translate(246.23,0) rotate(90,0,531)">17f.sql</text></g><g class="xtick"><text text-anchor="start" x="0" y="537" style="font-family: TOBESTRIPPEDOpen SansTOBESTRIPPED, verdana, arial, sans-serif; font-size: 12px; fill: rgb(42, 63, 95); fill-opacity: 1; white-space: pre; opacity: 1;" transform="translate(266.46000000000004,0) rotate(90,0,531)">18c.sql</text></g><g class="xtick"><text text-anchor="start" x="0" y="537" style="font-family: TOBESTRIPPEDOpen SansTOBESTRIPPED, verdana, arial, sans-serif; font-size: 12px; fill: rgb(42, 63, 95); fill-opacity: 1; white-space: pre; opacity: 1;" transform="translate(286.68,0) rotate(90,0,531)">19c.sql</text></g><g class="xtick"><text text-anchor="start" x="0" y="537" style="font-family: TOBESTRIPPEDOpen SansTOBESTRIPPED, verdana, arial, sans-serif; font-size: 12px; fill: rgb(42, 63, 95); fill-opacity: 1; white-space: pre; opacity: 1;" transform="translate(306.9,0) rotate(90,0,531)">1b.sql</text></g><g class="xtick"><text text-anchor="start" x="0" y="537" style="font-family: TOBESTRIPPEDOpen SansTOBESTRIPPED, verdana, arial, sans-serif; font-size: 12px; fill: rgb(42, 63, 95); fill-opacity: 1; white-space: pre; opacity: 1;" transform="translate(327.13,0) rotate(90,0,531)">20a.sql</text></g><g class="xtick"><text text-anchor="start" x="0" y="537" style="font-family: TOBESTRIPPEDOpen SansTOBESTRIPPED, verdana, arial, sans-serif; font-size: 12px; fill: rgb(42, 63, 95); fill-opacity: 1; white-space: pre; opacity: 1;" transform="translate(347.35,0) rotate(90,0,531)">21a.sql</text></g><g class="xtick"><text text-anchor="start" x="0" y="537" style="font-family: TOBESTRIPPEDOpen SansTOBESTRIPPED, verdana, arial, sans-serif; font-size: 12px; fill: rgb(42, 63, 95); fill-opacity: 1; white-space: pre; opacity: 1;" transform="translate(367.57,0) rotate(90,0,531)">22a.sql</text></g><g class="xtick"><text text-anchor="start" x="0" y="537" style="font-family: TOBESTRIPPEDOpen SansTOBESTRIPPED, verdana, arial, sans-serif; font-size: 12px; fill: rgb(42, 63, 95); fill-opacity: 1; white-space: pre; opacity: 1;" transform="translate(387.79,0) rotate(90,0,531)">22d.sql</text></g><g class="xtick"><text text-anchor="start" x="0" y="537" style="font-family: TOBESTRIPPEDOpen SansTOBESTRIPPED, verdana, arial, sans-serif; font-size: 12px; fill: rgb(42, 63, 95); fill-opacity: 1; white-space: pre; opacity: 1;" transform="translate(408.02,0) rotate(90,0,531)">23c.sql</text></g><g class="xtick"><text text-anchor="start" x="0" y="537" style="font-family: TOBESTRIPPEDOpen SansTOBESTRIPPED, verdana, arial, sans-serif; font-size: 12px; fill: rgb(42, 63, 95); fill-opacity: 1; white-space: pre; opacity: 1;" transform="translate(428.24,0) rotate(90,0,531)">25a.sql</text></g><g class="xtick"><text text-anchor="start" x="0" y="537" style="font-family: TOBESTRIPPEDOpen SansTOBESTRIPPED, verdana, arial, sans-serif; font-size: 12px; fill: rgb(42, 63, 95); fill-opacity: 1; white-space: pre; opacity: 1;" transform="translate(448.46,0) rotate(90,0,531)">26a.sql</text></g><g class="xtick"><text text-anchor="start" x="0" y="537" style="font-family: TOBESTRIPPEDOpen SansTOBESTRIPPED, verdana, arial, sans-serif; font-size: 12px; fill: rgb(42, 63, 95); fill-opacity: 1; white-space: pre; opacity: 1;" transform="translate(468.69,0) rotate(90,0,531)">27a.sql</text></g><g class="xtick"><text text-anchor="start" x="0" y="537" style="font-family: TOBESTRIPPEDOpen SansTOBESTRIPPED, verdana, arial, sans-serif; font-size: 12px; fill: rgb(42, 63, 95); fill-opacity: 1; white-space: pre; opacity: 1;" transform="translate(488.91,0) rotate(90,0,531)">28a.sql</text></g><g class="xtick"><text text-anchor="start" x="0" y="537" style="font-family: TOBESTRIPPEDOpen SansTOBESTRIPPED, verdana, arial, sans-serif; font-size: 12px; fill: rgb(42, 63, 95); fill-opacity: 1; white-space: pre; opacity: 1;" transform="translate(509.13,0) rotate(90,0,531)">29a.sql</text></g><g class="xtick"><text text-anchor="start" x="0" y="537" style="font-family: TOBESTRIPPEDOpen SansTOBESTRIPPED, verdana, arial, sans-serif; font-size: 12px; fill: rgb(42, 63, 95); fill-opacity: 1; white-space: pre; opacity: 1;" transform="translate(529.36,0) rotate(90,0,531)">2a.sql</text></g><g class="xtick"><text text-anchor="start" x="0" y="537" style="font-family: TOBESTRIPPEDOpen SansTOBESTRIPPED, verdana, arial, sans-serif; font-size: 12px; fill: rgb(42, 63, 95); fill-opacity: 1; white-space: pre; opacity: 1;" transform="translate(549.5799999999999,0) rotate(90,0,531)">2d.sql</text></g><g class="xtick"><text text-anchor="start" x="0" y="537" style="font-family: TOBESTRIPPEDOpen SansTOBESTRIPPED, verdana, arial, sans-serif; font-size: 12px; fill: rgb(42, 63, 95); fill-opacity: 1; white-space: pre; opacity: 1;" transform="translate(569.8,0) rotate(90,0,531)">30c.sql</text></g><g class="xtick"><text text-anchor="start" x="0" y="537" style="font-family: TOBESTRIPPEDOpen SansTOBESTRIPPED, verdana, arial, sans-serif; font-size: 12px; fill: rgb(42, 63, 95); fill-opacity: 1; white-space: pre; opacity: 1;" transform="translate(590.03,0) rotate(90,0,531)">31c.sql</text></g><g class="xtick"><text text-anchor="start" x="0" y="537" style="font-family: TOBESTRIPPEDOpen SansTOBESTRIPPED, verdana, arial, sans-serif; font-size: 12px; fill: rgb(42, 63, 95); fill-opacity: 1; white-space: pre; opacity: 1;" transform="translate(610.25,0) rotate(90,0,531)">33a.sql</text></g><g class="xtick"><text text-anchor="start" x="0" y="537" style="font-family: TOBESTRIPPEDOpen SansTOBESTRIPPED, verdana, arial, sans-serif; font-size: 12px; fill: rgb(42, 63, 95); fill-opacity: 1; white-space: pre; opacity: 1;" transform="translate(630.47,0) rotate(90,0,531)">3a.sql</text></g><g class="xtick"><text text-anchor="start" x="0" y="537" style="font-family: TOBESTRIPPEDOpen SansTOBESTRIPPED, verdana, arial, sans-serif; font-size: 12px; fill: rgb(42, 63, 95); fill-opacity: 1; white-space: pre; opacity: 1;" transform="translate(650.7,0) rotate(90,0,531)">4a.sql</text></g><g class="xtick"><text text-anchor="start" x="0" y="537" style="font-family: TOBESTRIPPEDOpen SansTOBESTRIPPED, verdana, arial, sans-serif; font-size: 12px; fill: rgb(42, 63, 95); fill-opacity: 1; white-space: pre; opacity: 1;" transform="translate(670.92,0) rotate(90,0,531)">5a.sql</text></g><g class="xtick"><text text-anchor="start" x="0" y="537" style="font-family: TOBESTRIPPEDOpen SansTOBESTRIPPED, verdana, arial, sans-serif; font-size: 12px; fill: rgb(42, 63, 95); fill-opacity: 1; white-space: pre; opacity: 1;" transform="translate(691.14,0) rotate(90,0,531)">6a.sql</text></g><g class="xtick"><text text-anchor="start" x="0" y="537" style="font-family: TOBESTRIPPEDOpen SansTOBESTRIPPED, verdana, arial, sans-serif; font-size: 12px; fill: rgb(42, 63, 95); fill-opacity: 1; white-space: pre; opacity: 1;" transform="translate(711.37,0) rotate(90,0,531)">6d.sql</text></g><g class="xtick"><text text-anchor="start" x="0" y="537" style="font-family: TOBESTRIPPEDOpen SansTOBESTRIPPED, verdana, arial, sans-serif; font-size: 12px; fill: rgb(42, 63, 95); fill-opacity: 1; white-space: pre; opacity: 1;" transform="translate(731.59,0) rotate(90,0,531)">7a.sql</text></g><g class="xtick"><text text-anchor="start" x="0" y="537" style="font-family: TOBESTRIPPEDOpen SansTOBESTRIPPED, verdana, arial, sans-serif; font-size: 12px; fill: rgb(42, 63, 95); fill-opacity: 1; white-space: pre; opacity: 1;" transform="translate(751.81,0) rotate(90,0,531)">8a.sql</text></g><g class="xtick"><text text-anchor="start" x="0" y="537" style="font-family: TOBESTRIPPEDOpen SansTOBESTRIPPED, verdana, arial, sans-serif; font-size: 12px; fill: rgb(42, 63, 95); fill-opacity: 1; white-space: pre; opacity: 1;" transform="translate(772.04,0) rotate(90,0,531)">8d.sql</text></g><g class="xtick"><text text-anchor="start" x="0" y="537" style="font-family: TOBESTRIPPEDOpen SansTOBESTRIPPED, verdana, arial, sans-serif; font-size: 12px; fill: rgb(42, 63, 95); fill-opacity: 1; white-space: pre; opacity: 1;" transform="translate(792.26,0) rotate(90,0,531)">9c.sql</text></g></g><g class="yaxislayer-above"><g class="ytick"><text text-anchor="end" x="43" y="4.199999999999999" style="font-family: TOBESTRIPPEDOpen SansTOBESTRIPPED, verdana, arial, sans-serif; font-size: 12px; fill: rgb(42, 63, 95); fill-opacity: 1; white-space: pre; opacity: 1;" transform="translate(0,513.0899999999999)">0</text></g><g class="ytick"><text text-anchor="end" x="43" y="4.199999999999999" style="font-family: TOBESTRIPPEDOpen SansTOBESTRIPPED, verdana, arial, sans-serif; font-size: 12px; fill: rgb(42, 63, 95); fill-opacity: 1; white-space: pre; opacity: 1;" transform="translate(0,403.24)">0.5</text></g><g class="ytick"><text text-anchor="end" x="43" y="4.199999999999999" style="font-family: TOBESTRIPPEDOpen SansTOBESTRIPPED, verdana, arial, sans-serif; font-size: 12px; fill: rgb(42, 63, 95); fill-opacity: 1; white-space: pre; opacity: 1;" transform="translate(0,293.39)">1</text></g><g class="ytick"><text text-anchor="end" x="43" y="4.199999999999999" style="font-family: TOBESTRIPPEDOpen SansTOBESTRIPPED, verdana, arial, sans-serif; font-size: 12px; fill: rgb(42, 63, 95); fill-opacity: 1; white-space: pre; opacity: 1;" transform="translate(0,183.55)">1.5</text></g><g class="ytick"><text text-anchor="end" x="43" y="4.199999999999999" style="font-family: TOBESTRIPPEDOpen SansTOBESTRIPPED, verdana, arial, sans-serif; font-size: 12px; fill: rgb(42, 63, 95); fill-opacity: 1; white-space: pre; opacity: 1;" transform="translate(0,73.7)">2</text></g></g><g class="overaxes-above"/></g></g><g class="polarlayer"/><g class="smithlayer"/><g class="ternarylayer"/><g class="geolayer"/><g class="funnelarealayer"/><g class="pielayer"/><g class="iciclelayer"/><g class="treemaplayer"/><g class="sunburstlayer"/><g class="glimages"/><defs id="topdefs-d01089"><g class="clips"/><clipPath id="legendd01089"><rect width="255" height="29" x="0" y="0"/></clipPath></defs><g class="layer-above"><g class="imagelayer"/><g class="shapelayer"/></g><g class="infolayer"><g class="legend" pointer-events="all" transform="translate(294,571)"><rect class="bg" shape-rendering="crispEdges" style="stroke: rgb(68, 68, 68); stroke-opacity: 1; fill: rgb(255, 255, 255); fill-opacity: 1; stroke-width: 0px;" width="255" height="29" x="0" y="0"/><g class="scrollbox" transform="" clip-path="url(#legendd01089)"><g class="groups"><g class="traces" style="opacity: 1;" transform="translate(0,14.5)"><text class="legendtext" text-anchor="start" style="font-family: TOBESTRIPPEDOpen SansTOBESTRIPPED, verdana, arial, sans-serif; font-size: 12px; fill: rgb(42, 63, 95); fill-opacity: 1; white-space: pre;" x="40" y="4.680000000000001">trace 0</text><g class="layers" style="opacity: 1;"><g class="legendfill"/><g class="legendlines"><path class="js-line" d="M5,0h30" style="fill: none; stroke: rgb(99, 110, 250); stroke-opacity: 1; stroke-width: 2px;"/></g><g class="legendsymbols"><g class="legendpoints"/></g></g><rect class="legendtoggle" style="fill: rgb(0, 0, 0); fill-opacity: 0;" x="0" y="-9.5" width="82.5" height="19"/></g><g class="traces" style="opacity: 1;" transform="translate(85,14.5)"><text class="legendtext" text-anchor="start" style="font-family: TOBESTRIPPEDOpen SansTOBESTRIPPED, verdana, arial, sans-serif; font-size: 12px; fill: rgb(42, 63, 95); fill-opacity: 1; white-space: pre;" x="40" y="4.680000000000001">trace 1</text><g class="layers" style="opacity: 1;"><g class="legendfill"/><g class="legendlines"><path class="js-line" d="M5,0h30" style="fill: none; stroke: rgb(239, 85, 59); stroke-opacity: 1; stroke-width: 2px;"/></g><g class="legendsymbols"><g class="legendpoints"/></g></g><rect class="legendtoggle" style="fill: rgb(0, 0, 0); fill-opacity: 0;" x="0" y="-9.5" width="82.5" height="19"/></g><g class="traces" style="opacity: 1;" transform="translate(170,14.5)"><text class="legendtext" text-anchor="start" style="font-family: TOBESTRIPPEDOpen SansTOBESTRIPPED, verdana, arial, sans-serif; font-size: 12px; fill: rgb(42, 63, 95); fill-opacity: 1; white-space: pre;" x="40" y="4.680000000000001">trace 2</text><g class="layers" style="opacity: 1;"><g class="legendfill"/><g class="legendlines"><path class="js-line" d="M5,0h30" style="fill: none; stroke: rgb(0, 204, 150); stroke-opacity: 1; stroke-width: 2px;"/></g><g class="legendsymbols"><g class="legendpoints"/></g></g><rect class="legendtoggle" style="fill: rgb(0, 0, 0); fill-opacity: 0;" x="0" y="-9.5" width="82.5" height="19"/></g></g></g><rect class="scrollbar" rx="20" ry="3" width="0" height="0" style="fill: rgb(128, 139, 164); fill-opacity: 1;" x="0" y="0"/></g><g class="g-gtitle"><text class="gtitle" style="font-family: TOBESTRIPPEDOpen SansTOBESTRIPPED, verdana, arial, sans-serif; font-size: 17px; fill: rgb(42, 63, 95); opacity: 1; font-weight: normal; white-space: pre;" x="40" y="25" text-anchor="start" dy="0em">Во сколько раз вемя планирования запроса с AQO превосходит без AQO</text></g><g class="g-xtitle" transform="translate(0,-3.216671752929642)"><text class="xtitle" style="font-family: TOBESTRIPPEDOpen SansTOBESTRIPPED, verdana, arial, sans-serif; font-size: 14px; fill: rgb(42, 63, 95); opacity: 1; font-weight: normal; white-space: pre;" x="421.5" y="597.2166717529296" text-anchor="middle">Имя файлов запросов</text></g><g class="g-ytitle" transform="translate(15.75,0)"><text class="ytitle" transform="rotate(-90,0.26640625000000284,287)" style="font-family: TOBESTRIPPEDOpen SansTOBESTRIPPED, verdana, arial, sans-serif; font-size: 14px; fill: rgb(42, 63, 95); opacity: 1; font-weight: normal; white-space: pre;" x="0.26640625000000284" y="287" text-anchor="middle">Значение</text></g></g></svg>